<svg xmlns="http://www.w3.org/2000/svg" viewBox="0 0 36 36">
  <defs>
    <linearGradient id="battleshipGradient" x1="0" y1="0" x2="1" y2="1">
      <stop offset="0" stop-color="#6366f1"/>
      <stop offset="1" stop-color="#8b5cf6"/>
    </linearGradient>
  </defs>
  <rect width="36" height="36" rx="10" fill="#ffffff"/>
  <g stroke="#c7d2fe" stroke-width="1" stroke-linecap="round">
    <path d="M7 7 L7 29"/>
    <path d="M12.5 7 L12.5 29"/>
    <path d="M18 7 L18 29"/>
    <path d="M23.5 7 L23.5 29"/>
    <path d="M29 7 L29 29"/>
    <path d="M7 7 L29 7"/>
    <path d="M7 12.5 L29 12.5"/>
    <path d="M7 18 L29 18"/>
    <path d="M7 23.5 L29 23.5"/>
    <path d="M7 29 L29 29"/>
  </g>
  <rect x="8.3" y="8.3" width="9" height="3.9" rx="1.9" fill="url(#battleshipGradient)"/>
  <rect x="19.3" y="19.3" width="3.9" height="9" rx="1.9" fill="url(#battleshipGradient)" opacity="0.75"/>
  <circle cx="10.25" cy="26.25" r="1.3" fill="#94a3b8"/>
  <circle cx="26.25" cy="10.25" r="1.3" fill="#94a3b8"/>
  <circle cx="12.75" cy="10.25" r="3.6" fill="none" stroke="#ec4899" stroke-width="1.5"/>
  <circle cx="12.75" cy="10.25" r="1.6" fill="#ec4899"/>
</svg>
